{"asset":{"version":"2.0","generator":"Blockbench 5.0.7 glTF exporter"},"scenes":[{"nodes":[9],"name":"blockbench_export"}],"scene":0,"nodes":[{"translation":[0,0.3125,0],"name":"bone3"},{"translation":[0,0.25,0],"name":"bone6"},{"rotation":[0,0,-0.7071067811865475,0.7071067811865476],"translation":[0.3125,0.20000000000000007,0],"name":"bone4","children":[1]},{"translation":[0,0.25,0],"name":"bone7"},{"rotation":[0,0,0.7071067811865475,0.7071067811865476],"translation":[-0.3125,0.20000000000000007,0],"name":"bone5","children":[3]},{"translation":[0,0.15625,0],"name":"bone2","children":[0,2,4]},{"translation":[0,0.46875,0],"name":"bone","children":[5]},{"rotation":[-1,0,0,6.123233995736766e-17],"translation":[0.125,0.53125,0],"name":"r_leg"},{"rotation":[-1,0,0,6.123233995736766e-17],"translation":[-0.125,0.53125,0],"name":"l_leg"},{"name":"armature","mesh":0,"children":[6,7,8],"skin":0}],"bufferViews":[{"buffer":0,"byteOffset":0,"byteLength":12048,"target":34962,"byteStride":12},{"buffer":0,"byteOffset":12048,"byteLength":12048,"target":34962,"byteStride":12},{"buffer":0,"byteOffset":24096,"byteLength":8032,"target":34962,"byteStride":8},{"buffer":0,"byteOffset":32128,"byteLength":8032,"target":34962,"byteStride":8},{"buffer":0,"byteOffset":40160,"byteLength":16064,"target":34962,"byteStride":16},{"buffer":0,"byteOffset":56224,"byteLength":2724,"target":34963},{"buffer":0,"byteOffset":58948,"byteLength":576},{"buffer":0,"byteOffset":59524,"byteLength":20},{"buffer":0,"byteOffset":59544,"byteLength":80},{"buffer":0,"byteOffset":59624,"byteLength":20},{"buffer":0,"byteOffset":59644,"byteLength":80},{"buffer":0,"byteOffset":59724,"byteLength":4},{"buffer":0,"byteOffset":59728,"byteLength":16},{"buffer":0,"byteOffset":59744,"byteLength":4},{"buffer":0,"byteOffset":59748,"byteLength":16},{"buffer":0,"byteOffset":59764,"byteLength":4},{"buffer":0,"byteOffset":59768,"byteLength":16},{"buffer":0,"byteOffset":59784,"byteLength":20},{"buffer":0,"byteOffset":59804,"byteLength":80},{"buffer":0,"byteOffset":59884,"byteLength":20},{"buffer":0,"byteOffset":59904,"byteLength":80},{"buffer":0,"byteOffset":59984,"byteLength":4},{"buffer":0,"byteOffset":59988,"byteLength":16},{"buffer":0,"byteOffset":60004,"byteLength":4},{"buffer":0,"byteOffset":60008,"byteLength":16},{"buffer":0,"byteOffset":60024,"byteLength":4},{"buffer":0,"byteOffset":60028,"byteLength":16},{"buffer":0,"byteOffset":60044,"byteLength":4},{"buffer":0,"byteOffset":60048,"byteLength":12},{"buffer":0,"byteOffset":60060,"byteLength":4},{"buffer":0,"byteOffset":60064,"byteLength":16},{"buffer":0,"byteOffset":60080,"byteLength":4},{"buffer":0,"byteOffset":60084,"byteLength":12},{"buffer":0,"byteOffset":60096,"byteLength":4},{"buffer":0,"byteOffset":60100,"byteLength":16},{"buffer":0,"byteOffset":60116,"byteLength":4},{"buffer":0,"byteOffset":60120,"byteLength":16},{"buffer":0,"byteOffset":60136,"byteLength":4},{"buffer":0,"byteOffset":60140,"byteLength":16},{"buffer":0,"byteOffset":60156,"byteLength":4},{"buffer":0,"byteOffset":60160,"byteLength":16},{"buffer":0,"byteOffset":60176,"byteLength":4},{"buffer":0,"byteOffset":60180,"byteLength":16},{"buffer":0,"byteOffset":60196,"byteLength":4},{"buffer":0,"byteOffset":60200,"byteLength":16},{"buffer":0,"byteOffset":60216,"byteLength":4},{"buffer":0,"byteOffset":60220,"byteLength":16}],"buffers":[{"byteLength":60236,"uri":"data:application/octet-stream;base64,"}],"accessors":[{"bufferView":0,"componentType":5126,"count":1004,"max":[0.8612708449363708,2.085624933242798,0.8612708449363708],"min":[-0.8612708449363708,0.25608810782432556,-1.0387709140777588],"type":"VEC3"},{"bufferView":1,"componentType":5126,"count":1004,"max":[0.9920452237129211,1,1],"min":[-0.9920452237129211,-1,-1],"type":"VEC3"},{"bufferView":2,"componentType":5126,"count":1004,"max":[1.4205000400543213,1.375],"min":[0,0],"type":"VEC2"},{"bufferView":3,"componentType":5123,"count":1004,"max":[8,0,0,0],"min":[0,0,0,0],"type":"VEC4"},{"bufferView":4,"componentType":5126,"count":1004,"max":[1,0,0,0],"min":[1,0,0,0],"type":"VEC4"},{"bufferView":5,"componentType":5123,"count":1362,"max":[1003],"min":[0],"type":"SCALAR"},{"bufferView":6,"componentType":5126,"count":9,"max":[1,1,0,0,1,1,1.2246468525851679e-16,0,0,0,1,0,0.824999988079071,0.53125,0,1],"min":[2.220446049250313e-16,-1,0,0,-1,-1,0,0,0,-1.2246468525851679e-16,-1,0,-0.824999988079071,-0.9375,-6.505936321640643e-17,1],"type":"MAT4"},{"bufferView":7,"componentType":5126,"count":5,"max":[0.6666666865348816],"min":[0],"type":"SCALAR"},{"bufferView":8,"componentType":5126,"count":5,"max":[-0.9749362468719482,0,0,0.19509032368659973],"min":[-1,0,0,-0.22248446941375732],"type":"VEC4"},{"bufferView":9,"componentType":5126,"count":5,"max":[0.6666666865348816],"min":[0],"type":"SCALAR"},{"bufferView":10,"componentType":5126,"count":5,"max":[-0.9683004021644592,0,0,0.2497885525226593],"min":[-1,0,0,-0.19509032368659973],"type":"VEC4"},{"bufferView":11,"componentType":5126,"count":1,"max":[0],"min":[0],"type":"SCALAR"},{"bufferView":12,"componentType":5126,"count":1,"max":[-0.04143970087170601,0,0,0.9991409778594971],"min":[-0.04143970087170601,0,0,0.9991409778594971],"type":"VEC4"},{"bufferView":13,"componentType":5126,"count":1,"max":[0],"min":[0],"type":"SCALAR"},{"bufferView":14,"componentType":5126,"count":1,"max":[0.1692565530538559,-0.4086214601993561,-0.8286023736000061,0.3432183265686035],"min":[0.1692565530538559,-0.4086214601993561,-0.8286023736000061,0.3432183265686035],"type":"VEC4"},{"bufferView":15,"componentType":5126,"count":1,"max":[0],"min":[0],"type":"SCALAR"},{"bufferView":16,"componentType":5126,"count":1,"max":[0.1692565530538559,0.4086214601993561,0.8286023736000061,0.3432183265686035],"min":[0.1692565530538559,0.4086214601993561,0.8286023736000061,0.3432183265686035],"type":"VEC4"},{"bufferView":17,"componentType":5126,"count":5,"max":[0.3333333432674408],"min":[0],"type":"SCALAR"},{"bufferView":18,"componentType":5126,"count":5,"max":[-0.9749362468719482,0,0,0.19509032368659973],"min":[-1,0,0,-0.22248446941375732],"type":"VEC4"},{"bufferView":19,"componentType":5126,"count":5,"max":[0.3333333432674408],"min":[0],"type":"SCALAR"},{"bufferView":20,"componentType":5126,"count":5,"max":[-0.9683004021644592,0,0,0.2497885525226593],"min":[-1,0,0,-0.19509032368659973],"type":"VEC4"},{"bufferView":21,"componentType":5126,"count":1,"max":[0],"min":[0],"type":"SCALAR"},{"bufferView":22,"componentType":5126,"count":1,"max":[-0.12836287915706635,0,0,0.9917272925376892],"min":[-0.12836287915706635,0,0,0.9917272925376892],"type":"VEC4"},{"bufferView":23,"componentType":5126,"count":1,"max":[0],"min":[0],"type":"SCALAR"},{"bufferView":24,"componentType":5126,"count":1,"max":[0.1692565530538559,-0.4086214601993561,-0.8286023736000061,0.3432183265686035],"min":[0.1692565530538559,-0.4086214601993561,-0.8286023736000061,0.3432183265686035],"type":"VEC4"},{"bufferView":25,"componentType":5126,"count":1,"max":[0],"min":[0],"type":"SCALAR"},{"bufferView":26,"componentType":5126,"count":1,"max":[0.1692565530538559,0.4086214601993561,0.8286023736000061,0.3432183265686035],"min":[0.1692565530538559,0.4086214601993561,0.8286023736000061,0.3432183265686035],"type":"VEC4"},{"bufferView":27,"componentType":5126,"count":1,"max":[0],"min":[0],"type":"SCALAR"},{"bufferView":28,"componentType":5126,"count":1,"max":[0.125,0.53125,-0.109375],"min":[0.125,0.53125,-0.109375],"type":"VEC3"},{"bufferView":29,"componentType":5126,"count":1,"max":[0],"min":[0],"type":"SCALAR"},{"bufferView":30,"componentType":5126,"count":1,"max":[-0.7071067690849304,0,0,0.7071067690849304],"min":[-0.7071067690849304,0,0,0.7071067690849304],"type":"VEC4"},{"bufferView":31,"componentType":5126,"count":1,"max":[0],"min":[0],"type":"SCALAR"},{"bufferView":32,"componentType":5126,"count":1,"max":[-0.125,0.53125,-0.109375],"min":[-0.125,0.53125,-0.109375],"type":"VEC3"},{"bufferView":33,"componentType":5126,"count":1,"max":[0],"min":[0],"type":"SCALAR"},{"bufferView":34,"componentType":5126,"count":1,"max":[-0.7071067690849304,0,0,0.7071067690849304],"min":[-0.7071067690849304,0,0,0.7071067690849304],"type":"VEC4"},{"bufferView":35,"componentType":5126,"count":1,"max":[0],"min":[0],"type":"SCALAR"},{"bufferView":36,"componentType":5126,"count":1,"max":[0.10452846437692642,0,0,0.9945219159126282],"min":[0.10452846437692642,0,0,0.9945219159126282],"type":"VEC4"},{"bufferView":37,"componentType":5126,"count":1,"max":[0],"min":[0],"type":"SCALAR"},{"bufferView":38,"componentType":5126,"count":1,"max":[-0.11970365792512894,0,0,0.9928096532821655],"min":[-0.11970365792512894,0,0,0.9928096532821655],"type":"VEC4"},{"bufferView":39,"componentType":5126,"count":1,"max":[0],"min":[0],"type":"SCALAR"},{"bufferView":40,"componentType":5126,"count":1,"max":[0.05581660568714142,-0.18693512678146362,-0.9397863149642944,0.28060904145240784],"min":[0.05581660568714142,-0.18693512678146362,-0.9397863149642944,0.28060904145240784],"type":"VEC4"},{"bufferView":41,"componentType":5126,"count":1,"max":[0],"min":[0],"type":"SCALAR"},{"bufferView":42,"componentType":5126,"count":1,"max":[0.05581660568714142,0.18693512678146362,0.9397863149642944,0.28060904145240784],"min":[0.05581660568714142,0.18693512678146362,0.9397863149642944,0.28060904145240784],"type":"VEC4"},{"bufferView":43,"componentType":5126,"count":1,"max":[0],"min":[0],"type":"SCALAR"},{"bufferView":44,"componentType":5126,"count":1,"max":[0,0,0.19509032368659973,0.9807852506637573],"min":[0,0,0.19509032368659973,0.9807852506637573],"type":"VEC4"},{"bufferView":45,"componentType":5126,"count":1,"max":[0],"min":[0],"type":"SCALAR"},{"bufferView":46,"componentType":5126,"count":1,"max":[0,0,-0.19509032368659973,0.9807852506637573],"min":[0,0,-0.19509032368659973,0.9807852506637573],"type":"VEC4"}],"materials":[{"pbrMetallicRoughness":{"metallicFactor":0,"roughnessFactor":1},"alphaMode":"MASK","alphaCutoff":0.05,"doubleSided":true}],"meshes":[{"primitives":[{"mode":4,"attributes":{"POSITION":0,"NORMAL":1,"TEXCOORD_0":2,"JOINTS_0":3,"WEIGHTS_0":4},"indices":5,"material":0}]}],"skins":[{"inverseBindMatrices":6,"joints":[6,5,0,2,1,4,3,7,8],"skeleton":6}],"animations":[{"name":"walking","samplers":[{"input":7,"output":8,"interpolation":"LINEAR"},{"input":9,"output":10,"interpolation":"LINEAR"},{"input":11,"output":12,"interpolation":"LINEAR"},{"input":13,"output":14,"interpolation":"LINEAR"},{"input":15,"output":16,"interpolation":"LINEAR"}],"channels":[{"sampler":0,"target":{"node":7,"path":"rotation"}},{"sampler":1,"target":{"node":8,"path":"rotation"}},{"sampler":2,"target":{"node":5,"path":"rotation"}},{"sampler":3,"target":{"node":2,"path":"rotation"}},{"sampler":4,"target":{"node":4,"path":"rotation"}}]},{"name":"RUNNING","samplers":[{"input":17,"output":18,"interpolation":"LINEAR"},{"input":19,"output":20,"interpolation":"LINEAR"},{"input":21,"output":22,"interpolation":"LINEAR"},{"input":23,"output":24,"interpolation":"LINEAR"},{"input":25,"output":26,"interpolation":"LINEAR"}],"channels":[{"sampler":0,"target":{"node":7,"path":"rotation"}},{"sampler":1,"target":{"node":8,"path":"rotation"}},{"sampler":2,"target":{"node":5,"path":"rotation"}},{"sampler":3,"target":{"node":2,"path":"rotation"}},{"sampler":4,"target":{"node":4,"path":"rotation"}}]},{"name":"sit","samplers":[{"input":27,"output":28,"interpolation":"LINEAR"},{"input":29,"output":30,"interpolation":"LINEAR"},{"input":31,"output":32,"interpolation":"LINEAR"},{"input":33,"output":34,"interpolation":"LINEAR"},{"input":35,"output":36,"interpolation":"LINEAR"},{"input":37,"output":38,"interpolation":"LINEAR"},{"input":39,"output":40,"interpolation":"LINEAR"},{"input":41,"output":42,"interpolation":"LINEAR"},{"input":43,"output":44,"interpolation":"LINEAR"},{"input":45,"output":46,"interpolation":"LINEAR"}],"channels":[{"sampler":0,"target":{"node":7,"path":"translation"}},{"sampler":1,"target":{"node":7,"path":"rotation"}},{"sampler":2,"target":{"node":8,"path":"translation"}},{"sampler":3,"target":{"node":8,"path":"rotation"}},{"sampler":4,"target":{"node":5,"path":"rotation"}},{"sampler":5,"target":{"node":0,"path":"rotation"}},{"sampler":6,"target":{"node":2,"path":"rotation"}},{"sampler":7,"target":{"node":4,"path":"rotation"}},{"sampler":8,"target":{"node":1,"path":"rotation"}},{"sampler":9,"target":{"node":3,"path":"rotation"}}]}]}